<?xml version="1.0" standalone="no"?>
<!DOCTYPE svg PUBLIC "-//W3C//DTD SVG 20010904//EN"
 "http://www.w3.org/TR/2001/REC-SVG-20010904/DTD/svg10.dtd">
<svg version="1.0" xmlns="http://www.w3.org/2000/svg"
 width="1024.000000pt" height="1024.000000pt" viewBox="0 0 1024.000000 1024.000000"
 preserveAspectRatio="xMidYMid meet">
<metadata>
Created by potrace 1.14, written by Peter Selinger 2001-2017
</metadata>
<g transform="translate(0.000000,1024.000000) scale(0.100000,-0.100000)"
fill="#000000" stroke="none">
<path d="M2505 7850 c-650 -69 -1162 -376 -1516 -910 -211 -318 -337 -696
-396 -1190 -24 -204 -24 -658 1 -865 94 -799 412 -1380 950 -1736 347 -229
752 -339 1251 -339 634 0 1095 182 1486 587 275 284 457 634 549 1058 11 49
20 98 20 110 0 20 -2 20 -498 17 l-497 -2 -19 -68 c-52 -184 -156 -396 -251
-508 -100 -118 -267 -226 -419 -273 -162 -50 -394 -65 -566 -37 -447 73 -791
420 -919 929 -96 377 -100 937 -11 1336 28 125 84 292 132 391 124 256 318
458 534 555 290 132 717 122 1009 -22 229 -114 372 -299 481 -623 l32 -95 505
-3 505 -2 -4 42 c-31 280 -125 542 -284 787 -315 485 -770 756 -1420 847 -124
17 -540 26 -655 14z"/>
<path d="M5650 5355 l0 -2416 1248 4 c1318 4 1295 3 1557 51 388 70 668 238
892 535 115 152 204 346 251 545 23 101 26 131 26 321 1 184 -2 223 -22 314
-65 290 -196 500 -413 661 -65 49 -207 127 -270 149 l-33 11 83 50 c105 62
139 88 220 165 149 141 241 338 272 580 18 150 7 395 -25 520 -57 224 -143
381 -292 531 -153 156 -362 267 -617 329 -242 60 -199 58 -1594 62 l-1283 4 0
-2416z m2400 1548 c152 -30 211 -49 279 -93 69 -45 131 -129 157 -214 21 -71
29 -217 15 -306 -35 -228 -183 -351 -486 -406 -64 -11 -209 -14 -742 -14
l-663 0 0 531 0 530 668 -4 c617 -4 675 -6 772 -24z m-113 -1843 c331 -24 516
-118 612 -310 50 -101 65 -189 58 -340 -12 -256 -113 -439 -294 -532 -178 -93
-232 -98 -1040 -98 l-663 0 0 645 0 645 593 0 c325 0 656 -5 734 -10z"/>
</g>
</svg>
